<svg width="106" height="106" viewBox="0 0 106 106" fill="none" xmlns="http://www.w3.org/2000/svg">
<path d="M53 0.5C24.0078 0.5 0.5 24.6172 0.5 54.3359C0.5 78.125 15.5469 98.2813 36.4062 105.406C36.6988 105.47 36.9975 105.501 37.2969 105.5C39.2422 105.5 39.9922 104.07 39.9922 102.828C39.9922 101.539 39.9453 98.1641 39.9219 93.6641C38.1853 94.0712 36.4087 94.2834 34.625 94.2969C24.5234 94.2969 22.2266 86.4453 22.2266 86.4453C19.8359 80.2344 16.3906 78.5703 16.3906 78.5703C11.8203 75.3594 16.3672 75.2656 16.7187 75.2656H16.7422C22.0156 75.7344 24.7813 80.8437 24.7813 80.8437C27.4063 85.4375 30.9219 86.7266 34.0625 86.7266C36.1391 86.685 38.1837 86.2058 40.0625 85.3203C40.5313 81.8516 41.8906 79.4844 43.3906 78.125C31.7422 76.7656 19.4844 72.1484 19.4844 51.5234C19.4844 45.6406 21.5234 40.8359 24.875 37.0859C24.3359 35.7266 22.5312 30.2422 25.3906 22.8359C25.7742 22.7442 26.1684 22.7047 26.5625 22.7188C28.4609 22.7188 32.75 23.4453 39.8281 28.3672C48.4286 25.9609 57.5245 25.9609 66.125 28.3672C73.2031 23.4453 77.4922 22.7188 79.3906 22.7188C79.7848 22.7047 80.179 22.7442 80.5625 22.8359C83.4219 30.2422 81.6172 35.7266 81.0781 37.0859C84.4297 40.8594 86.4687 45.6641 86.4687 51.5234C86.4687 72.1953 74.1875 76.7422 62.4922 78.0781C64.3672 79.7422 66.0547 83.0234 66.0547 88.0391C66.0547 95.2344 65.9844 101.047 65.9844 102.805C65.9844 104.07 66.7109 105.5 68.6562 105.5C68.9712 105.501 69.2853 105.47 69.5937 105.406C90.4766 98.2813 105.5 78.1016 105.5 54.3359C105.5 24.6172 81.9922 0.5 53 0.5Z" fill="white"/>
</svg>
